HIERARCHY
ROOT RootJoint
{
    OFFSET   0.000000   0.000000   0.000000
    CHANNELS 6 Xposition Yposition Zposition Xrotation Yrotation Zrotation
    JOINT pelvis_lowerback
    {
        OFFSET   0.000000   0.093605   0.000000
        CHANNELS 3 Xrotation Yrotation Zrotation
        JOINT lowerback_torso
        {
            OFFSET   0.000000   0.100000   0.000000
            CHANNELS 3 Xrotation Yrotation Zrotation
            JOINT torso_head
            {
                OFFSET   0.000000   0.282350   0.000000
                CHANNELS 3 Xrotation Yrotation Zrotation
                End Site
                {
                    OFFSET   0.000000   0.192650   0.000000
                }
            }
            JOINT rTorso_Clavicle
            {
                OFFSET  -0.001000   0.157500   0.000000
                CHANNELS 3 Xrotation Yrotation Zrotation
                JOINT rShoulder
                {
                    OFFSET  -0.117647   0.000000   0.000000
                    CHANNELS 3 Xrotation Yrotation Zrotation
                    JOINT rElbow
                    {
                        OFFSET  -0.245000   0.000000   0.000000
                        CHANNELS 3 Xrotation Yrotation Zrotation
                        JOINT rWrist
                        {
                            OFFSET  -0.240000   0.000000   0.000000
                            CHANNELS 3 Xrotation Yrotation Zrotation
                            End Site
                            {
                                OFFSET  -0.116353  -0.002500   0.000000
                            }
                        }
                    }
                }
            }
            JOINT lTorso_Clavicle
            {
                OFFSET   0.001000   0.157500   0.000000
                CHANNELS 3 Xrotation Yrotation Zrotation
                JOINT lShoulder
                {
                    OFFSET   0.117647   0.000000   0.000000
                    CHANNELS 3 Xrotation Yrotation Zrotation
                    JOINT lElbow
                    {
                        OFFSET   0.245000   0.000000   0.000000
                        CHANNELS 3 Xrotation Yrotation Zrotation
                        JOINT lWrist
                        {
                            OFFSET   0.240000   0.000000   0.000000
                            CHANNELS 3 Xrotation Yrotation Zrotation
                            End Site
                            {
                                OFFSET   0.116353  -0.002500   0.000000
                            }
                        }
                    }
                }
            }
        }
    }
    JOINT rHip
    {
        OFFSET  -0.100000  -0.051395   0.000000
        CHANNELS 3 Xrotation Yrotation Zrotation
        JOINT rKnee
        {
            OFFSET   0.000000  -0.410000   0.000000
            CHANNELS 3 Xrotation Yrotation Zrotation
            JOINT rAnkle
            {
                OFFSET   0.000000  -0.390000   0.000000
                CHANNELS 3 Xrotation Yrotation Zrotation
                JOINT rToeJoint
                {
                    OFFSET   0.000000  -0.050000   0.130000
                    CHANNELS 3 Xrotation Yrotation Zrotation
                    End Site
                    {
                        OFFSET  -0.010000   0.002000   0.060000
                    }
                }
            }
        }
    }
    JOINT lHip
    {
        OFFSET   0.100000  -0.051395   0.000000
        CHANNELS 3 Xrotation Yrotation Zrotation
        JOINT lKnee
        {
            OFFSET   0.000000  -0.410000   0.000000
            CHANNELS 3 Xrotation Yrotation Zrotation
            JOINT lAnkle
            {
                OFFSET   0.000000  -0.390000   0.000000
                CHANNELS 3 Xrotation Yrotation Zrotation
                JOINT lToeJoint
                {
                    OFFSET   0.000000  -0.050000   0.130000
                    CHANNELS 3 Xrotation Yrotation Zrotation
                    End Site
                    {
                        OFFSET   0.010000   0.002000   0.060000
                    }
                }
            }
        }
    }
}
MOTION
Frames: 12
Frame Time:   0.008333
 -2.383842   0.908939   4.010333  14.448502   1.271254  -0.074744   0.678029  -0.428798   1.038294  -4.708957  -0.507299   1.726037  -0.023482   2.262035   1.165280  -8.656138 -10.273983 -10.096866 -31.039394   0.952214  27.626256 -180.000000  46.375538 179.999320  -1.620397   9.933734   3.992274  -7.398249   9.153734   9.117513 -21.295701   2.732287 -37.510496 -179.999979 -46.586685 -179.999995   1.295932 -10.186617  -5.209079 -14.995508  -5.202835 -11.577279   6.050031   0.000015   0.000008  -2.822686  -2.991934   6.714411  -3.557621  -0.000125  -0.000006 -11.997440   0.335069   9.297794   0.512778   0.000037   0.000023  -3.492289   4.069053  -0.278326   1.312259  -0.000000  -0.000000
 -2.383997   0.908906   4.010274  14.509869   1.211670  -0.066314   0.700335  -0.427065   1.048504  -4.747183  -0.494348   1.698189  -0.065588   2.256932   1.151738  -8.736078 -10.249434 -10.165254 -31.298613   0.954162  27.543560 -179.999983  46.353622 179.999386  -1.588550   9.933841   3.844994  -7.428125   9.149067   9.127551 -21.427474   2.793211 -37.437791 -179.999982 -46.585344 -179.999994   1.321358 -10.176888  -5.017398 -15.088021  -5.154818 -11.565032   6.082372   0.000009   0.000002  -2.847273  -2.977315   6.724313  -3.500487  -0.000110  -0.000005 -12.056160   0.367983   9.312856   0.514407   0.000029   0.000018  -3.494414   4.082459  -0.286206   1.312949  -0.000000  -0.000000
 -2.384139   0.908866   4.010196  14.567922   1.148182  -0.051939   0.727316  -0.423525   1.060343  -4.779152  -0.478161   1.667446  -0.104119   2.251714   1.140139  -8.817558 -10.221930 -10.235193 -31.548038   0.957762  27.464758 -179.999974  46.335876 179.999456  -1.555141   9.935431   3.654367  -7.453322   9.148325   9.126681 -21.547345   2.854065 -37.374072 -179.999985 -46.584506 -179.999994   1.345917 -10.167753  -4.819878 -15.179331  -5.104911 -11.558613   6.113978   0.000004  -0.000004  -2.876172  -2.960209   6.733932  -3.438697  -0.000099  -0.000005 -12.113047   0.397150   9.323373   0.520668   0.000023   0.000012  -3.499688   4.094309  -0.295361   1.313325  -0.000000  -0.000000
 -2.384280   0.908821   4.010106  14.623952   1.083997  -0.035000   0.756257  -0.418717   1.072208  -4.806030  -0.461098   1.636916  -0.139427   2.246815   1.130042  -8.894901 -10.194685 -10.302635 -31.782362   0.962297  27.390687 -179.999970  46.319626 179.999522  -1.523068   9.937661   3.458475  -7.475307   9.149081   9.121389 -21.657476   2.912165 -37.316446 -179.999988 -46.583775 -179.999995   1.368792 -10.159508  -4.630486 -15.267415  -5.055629 -11.554331   6.140918   0.000001  -0.000009  -2.906280  -2.942293   6.743232  -3.374283  -0.000090  -0.000006 -12.167620   0.422292   9.332482   0.526733   0.000017   0.000008  -3.505517   4.103775  -0.304519   1.313833  -0.000000  -0.000000
 -2.384424   0.908773   4.010006  14.678240   1.020552  -0.016820   0.786485  -0.413334   1.083688  -4.828656  -0.444166   1.607743  -0.171988   2.242258   1.120917  -8.967194 -10.168526 -10.365983 -32.001320   0.967135  27.321520 -179.999968  46.304447 179.999581  -1.492533   9.940232   3.268431  -7.495004   9.150388   9.114310 -21.759372   2.966911 -37.263478 -179.999990 -46.583093 -179.999995   1.390140 -10.152072  -4.450641 -15.352089  -5.007776 -11.550938   6.163419  -0.000001  -0.000011  -2.936693  -2.924297   6.752290  -3.308545  -0.000084  -0.000006 -12.220166   0.444201   9.341039   0.531814   0.000013   0.000004  -3.511054   4.111503  -0.313330   1.314546  -0.000000  -0.000000
 -2.384550   0.908665   4.009884  14.733962   0.941398  -0.007959   0.815028  -0.401311   1.105640  -4.848212  -0.423052   1.584395  -0.202007   2.238252   1.112497  -9.035713 -10.141136 -10.430199 -32.207236   0.973677  27.255622 -179.999970  46.291491 179.999636  -1.463633   9.943041   3.082421  -7.513632   9.153311   9.109922 -21.854521   3.018553 -37.213428 -179.999992 -46.581998 -179.999996   1.410052 -10.145131  -4.275244 -15.437582  -4.955653 -11.535480   6.180401  -0.000002  -0.000014  -2.980179  -2.901105   6.766216  -3.217537  -0.000087  -0.000008 -12.260039   0.448073   9.368837   0.523156   0.000012   0.000009  -3.555740   4.099424  -0.317897   1.369291  -0.000005  -0.000043
 -2.384682   0.908624   4.009752  14.786779   0.884647   0.017852   0.848535  -0.399399   1.110286  -4.864858  -0.409574   1.557992  -0.230336   2.234150   1.105174  -9.097425 -10.118615 -10.480702 -32.396758   0.977695  27.196981 -179.999972  46.277150 179.999681  -1.435810   9.945886   2.911934  -7.529785   9.154049   9.099698 -21.942336   3.066357 -37.168270 -179.999993 -46.581507 -179.999996   1.428934 -10.139055  -4.114774 -15.517591  -4.912208 -11.541394   6.192426  -0.000003  -0.000013  -3.008629  -2.884921   6.773750  -3.148913  -0.000080  -0.000008 -12.314577   0.470619   9.366213   0.527103   0.000009   0.000006  -3.547441   4.113486  -0.332222   1.357849  -0.000005  -0.000032
 -2.384802   0.908586   4.009530  14.839046   0.811535   0.047787   0.890910  -0.406480   1.123259  -4.863259  -0.390596   1.532660  -0.269462   2.217664   1.087453  -9.156555 -10.065818 -10.515573 -32.659455   1.012242  27.103763 -179.999996  46.319684 179.999841  -1.387090   9.950443   2.698799  -7.536380   9.159806   9.090636 -22.012146   3.135677 -37.125396 -179.999994 -46.584176 -179.999997   1.459655 -10.131178  -3.876451 -15.636629  -4.863395 -11.550990   6.259733  -0.000009  -0.000035  -3.046902  -2.848099   6.772740  -3.096536  -0.000068  -0.000007 -12.388562   0.497222   9.361177   0.567508   0.000004  -0.000012  -3.557545   4.135804  -0.332115   1.351139  -0.000003  -0.000024
 -2.384932   0.908547   4.009281  14.886163   0.736799   0.077487   0.940632  -0.412916   1.140790  -4.852720  -0.369633   1.507957  -0.304947   2.200969   1.071659  -9.216657 -10.007479 -10.558034 -32.911120   1.049602  27.014180 179.999992  46.365599 179.999963  -1.338536   9.955334   2.464466  -7.540759   9.165733   9.080106 -22.075575   3.201515 -37.086200 -179.999994 -46.587947 -179.999996   1.488440 -10.123514  -3.642751 -15.753200  -4.813785 -11.559202   6.329066  -0.000014  -0.000054  -3.085406  -2.810160   6.772756  -3.044127  -0.000059  -0.000007 -12.459143   0.521272   9.358307   0.610098  -0.000001  -0.000028  -3.569705   4.156346  -0.331216   1.346539  -0.000002  -0.000018
 -2.385075   0.908504   4.009019  14.931409   0.662891   0.106821   0.993188  -0.417612   1.159642  -4.837278  -0.348437   1.484918  -0.337010   2.185278   1.057660  -9.273832  -9.950072 -10.601587 -33.147604   1.086875  26.929768 179.999988  46.409246 -179.999956  -1.292097   9.960105   2.233099  -7.544237   9.171035   9.069517 -22.134249   3.262900 -37.050038 -179.999993 -46.591605 -179.999995   1.515305 -10.116309  -3.421239 -15.865399  -4.765252 -11.565856   6.392822  -0.000018  -0.000067  -3.124288  -2.773178   6.773754  -2.987119  -0.000053  -0.000007 -12.526907   0.541711   9.357487   0.649804  -0.000005  -0.000041  -3.581568   4.173874  -0.329797   1.343750  -0.000001  -0.000014
 -2.385232   0.908457   4.008749  14.975733   0.590481   0.135877   1.047095  -0.420884   1.178807  -4.818856  -0.327656   1.463827  -0.366265   2.170652   1.044921  -9.327272  -9.895131 -10.643427 -33.368679   1.122857  26.850906 179.999989  46.450073 -179.999906  -1.247820   9.964641   2.010954  -7.547178   9.175782   9.059228 -22.188761   3.320087 -37.016486 -179.999992 -46.595014 -179.999994   1.540462 -10.109514  -3.211116 -15.973180  -4.718247 -11.571195   6.449935  -0.000021  -0.000074  -3.163696  -2.737576   6.775671  -2.924913  -0.000051  -0.000007 -12.592371   0.559091   9.358225   0.685931  -0.000009  -0.000050  -3.592540   4.188974  -0.328081   1.342413  -0.000001  -0.000011
 -2.385401   0.908406   4.008475  15.019295   0.519788   0.164646   1.101617  -0.423083   1.198084  -4.798378  -0.307593   1.444780  -0.393091   2.157033   1.033178  -9.376891  -9.843062 -10.682567 -33.574950   1.157082  26.777525 179.999993  46.488178 -179.999878  -1.205626   9.968914   1.799123  -7.549714   9.180033   9.049285 -22.239476   3.373386 -36.985321 -179.999991 -46.598192 -179.999993   1.564048 -10.103077  -3.011256 -16.076580  -4.672873 -11.575381   6.500661  -0.000023  -0.000077  -3.203582  -2.703419   6.778433  -2.857991  -0.000050  -0.000007 -12.655650   0.573951   9.360219   0.718611  -0.000011  -0.000056  -3.602542   4.202128  -0.326132   1.342250  -0.000001  -0.000008
